<?xml version="1.0" encoding="UTF-8"?>
<svg id="b" data-name="Layer 2" xmlns="http://www.w3.org/2000/svg" width="361.652" height="120" viewBox="0 0 361.652 120">
  <g id="c" data-name="Layer 1">
    <path d="M113.5,119.975c-.086-.012-.172-.036-.258-.033-1.982,.074-3.965,.077-5.946,.008-1.455-.051-2.912-.109-4.363-.265-.84-.09-1.684-.146-2.524-.23-.638-.063-1.275-.132-1.91-.222-.98-.14-1.958-.297-2.936-.454-2.763-.443-5.492-1.041-8.193-1.769-4.056-1.094-8.01-2.479-11.847-4.192-4.189-1.87-8.179-4.094-11.943-6.719-.093-.065-.203-.107-.305-.16-.132-.112-.259-.23-.397-.334-.628-.472-1.264-.935-1.889-1.411-.444-.338-.456-.307-.451-.951,.001-.204,0-.408,0-.612,0-12.117,0-24.235,0-36.352,0-.641-.003-1.282-.005-1.922l.246-.041c.293,2.644,1.017,5.164,2.185,7.555,.025,.051,.067,.094,.101,.141,.007,.056-.001,.121,.024,.168,.599,1.113,1.211,2.219,1.918,3.267,.078,.116,.186,.213,.279,.319,.21,.453,.511,.848,.799,1.25,1.327,1.85,2.764,3.612,4.284,5.306,7.21,8.035,15.357,14.965,24.488,20.731,3.701,2.337,7.538,4.421,11.568,6.137,1.848,.787,3.697,1.574,5.596,2.236,2.646,.922,5.344,1.635,8.104,2.121,1.896,.334,3.802,.563,5.723,.708,1.777,.134,3.554,.149,5.332,.108,1.282-.03,2.561-.136,3.837-.272,.957-.102,1.908-.232,2.859-.38,1.73-.269,3.432-.659,5.117-1.123,1.798-.495,3.567-1.078,5.286-1.806,.079-.034,.167-.049,.25-.073,.124,.037,.273,.017,.349,.159-.203,.114-.402,.235-.609,.34-4.897,2.476-10.003,4.401-15.303,5.822-2.221,.596-4.462,1.104-6.722,1.518-1.717,.314-3.443,.577-5.178,.781-1.996,.234-3.993,.436-6.002,.523-.523,.023-1.044,.083-1.566,.127Z" fill="#272363"/>
    <path d="M251.367,52.321h5.906v-1.44h-5.906v-4.069h6.212v-1.44h-7.922v12.784h1.71v-5.834Zm11.926-2.754c-.475,.42-.826,.966-1.054,1.638v-2.053h-1.423v9.003h1.531v-3.853c0-.468,.012-.846,.035-1.134,.024-.288,.108-.63,.253-1.026,.144-.396,.348-.727,.611-.99,.469-.468,1.129-.702,1.981-.702h.071v-1.495c-.071-.012-.18-.018-.324-.018-.647,0-1.209,.21-1.683,.63Zm8.162-.63c-1.284,0-2.287,.426-3.007,1.278-.721,.853-1.08,2.035-1.08,3.547,0,1.477,.359,2.614,1.08,3.412,.72,.798,1.729,1.197,3.024,1.197,1.873,0,3.127-.834,3.764-2.502l-1.261-.558c-.408,1.14-1.206,1.71-2.395,1.71-.804,0-1.449-.267-1.936-.801s-.735-1.239-.747-2.116h6.392v-1.08c0-1.333-.333-2.347-.999-3.043s-1.611-1.044-2.836-1.044Zm2.287,3.925h-4.844c.023-.853,.255-1.519,.693-1.999,.438-.48,1.047-.72,1.827-.72,.744,0,1.317,.216,1.72,.648s.604,1.056,.604,1.873v.198Zm6.497,5.293v-9.003h-1.531v9.003h1.531Zm.107-12.604h-1.746v1.926h1.746v-1.926Zm11.468,13.468c0-.816-.258-1.443-.774-1.881-.516-.438-1.278-.657-2.286-.657h-2.197c-.996,0-1.494-.306-1.494-.918,0-.408,.216-.702,.648-.882,.528,.252,1.104,.378,1.729,.378,1.021,0,1.83-.288,2.431-.864,.6-.576,.9-1.314,.9-2.215,0-.864-.276-1.573-.828-2.125,.216-.564,.666-.846,1.35-.846,.192,0,.408,.024,.648,.072v-1.333c-.18-.048-.378-.072-.594-.072-1.104,0-1.818,.546-2.143,1.638-.541-.252-1.129-.378-1.765-.378-1.021,0-1.831,.285-2.431,.855-.601,.57-.9,1.299-.9,2.188,0,.9,.294,1.632,.882,2.197-.852,.324-1.278,.924-1.278,1.8,0,.732,.349,1.254,1.045,1.566-.469,.156-.829,.399-1.081,.729s-.378,.711-.378,1.143c0,1.645,1.351,2.467,4.052,2.467,1.512,0,2.635-.255,3.366-.765,.732-.51,1.099-1.209,1.099-2.098Zm-5.753-8.391c.343-.348,.802-.522,1.378-.522,.563,0,1.021,.177,1.368,.531,.348,.354,.522,.807,.522,1.359s-.175,1.005-.522,1.359-.805,.531-1.368,.531-1.021-.18-1.368-.541c-.349-.36-.522-.816-.522-1.368s.171-1.002,.513-1.351Zm1.468,9.993c-1.824,0-2.737-.492-2.737-1.477,0-.612,.318-1.062,.955-1.351,.312,.024,.563,.036,.756,.036h1.908c1.249,0,1.873,.432,1.873,1.296,0,.997-.918,1.495-2.755,1.495Zm13.304-7.958v5.492h1.53v-5.6c0-1.2-.252-2.11-.757-2.728-.504-.618-1.242-.927-2.215-.927-1.416,0-2.4,.648-2.952,1.945v-5.744h-1.53v13.054h1.53v-4.699c0-1.021,.213-1.81,.639-2.368,.427-.559,1.023-.837,1.792-.837,1.309,0,1.963,.804,1.963,2.413Zm9.502,5.492v-1.404c-.36,.084-.672,.126-.937,.126-.456,0-.789-.117-.999-.351-.21-.234-.315-.609-.315-1.125v-4.987h2.251v-1.261h-2.251v-3.007l-1.53,.648v2.358h-1.674v1.261h1.674v5.042c0,.924,.181,1.632,.54,2.125,.36,.492,.997,.738,1.909,.738,.492,0,.936-.054,1.332-.162Zm-54.178,13.596c-.168,.492-.276,.894-.324,1.206h-.036c-.048-.312-.156-.714-.324-1.206l-3.385-9.831h-2.431v12.784h1.566v-9.867c0-.541-.024-.997-.072-1.369h.072c.072,.48,.198,.966,.378,1.458l3.385,9.777h1.657l3.385-9.777c.18-.492,.306-.979,.378-1.458h.072c-.048,.372-.072,.828-.072,1.369v9.867h1.566v-12.784h-2.431l-3.385,9.831Zm16.829-2.521c0-1.309-.282-2.26-.846-2.854-.564-.594-1.465-.891-2.701-.891-1.057,0-1.918,.276-2.584,.828s-1.029,1.291-1.089,2.215h1.639c.035-.564,.233-1.002,.594-1.314s.846-.468,1.458-.468c.696,0,1.201,.18,1.513,.54,.312,.36,.469,.955,.469,1.783v.144l-1.675,.198c-1.368,.168-2.377,.414-3.025,.738-.84,.468-1.26,1.176-1.26,2.125,0,.804,.275,1.446,.828,1.926,.552,.48,1.29,.721,2.215,.721,.731,0,1.368-.166,1.908-.496s.912-.783,1.116-1.359c.024,.588,.072,1.134,.145,1.639h1.603c-.204-.66-.307-1.674-.307-3.043v-2.431Zm-1.53,1.548c0,.876-.237,1.576-.711,2.098-.475,.522-1.102,.783-1.882,.783-.552,0-.984-.126-1.297-.378-.312-.252-.468-.6-.468-1.044s.153-.789,.459-1.035c.307-.246,.789-.417,1.449-.513l2.449-.36v.45Zm9.881-5.33c-1.416,0-2.418,.678-3.007,2.035v-1.782h-1.44v9.002h1.531v-4.699c0-.997,.216-1.78,.647-2.35,.433-.57,1.021-.855,1.765-.855,1.32,0,1.98,.798,1.98,2.395v5.51h1.531v-5.6c0-2.437-1.003-3.655-3.008-3.655Zm13.573,3.781c0-1.309-.282-2.26-.846-2.854-.564-.594-1.465-.891-2.701-.891-1.057,0-1.918,.276-2.584,.828s-1.029,1.291-1.089,2.215h1.639c.035-.564,.233-1.002,.594-1.314s.846-.468,1.458-.468c.696,0,1.201,.18,1.513,.54,.312,.36,.469,.955,.469,1.783v.144l-1.675,.198c-1.368,.168-2.377,.414-3.025,.738-.84,.468-1.26,1.176-1.26,2.125,0,.804,.275,1.446,.828,1.926,.552,.48,1.29,.721,2.215,.721,.731,0,1.368-.166,1.908-.496s.912-.783,1.116-1.359c.024,.588,.072,1.134,.145,1.639h1.603c-.204-.66-.307-1.674-.307-3.043v-2.431Zm-1.53,1.548c0,.876-.237,1.576-.711,2.098-.475,.522-1.102,.783-1.882,.783-.552,0-.984-.126-1.297-.378-.312-.252-.468-.6-.468-1.044s.153-.789,.459-1.035c.307-.246,.789-.417,1.449-.513l2.449-.36v.45Zm10.26-4.916c-.541-.252-1.129-.378-1.765-.378-1.021,0-1.831,.285-2.431,.855-.601,.57-.9,1.299-.9,2.188,0,.9,.294,1.632,.882,2.197-.852,.324-1.278,.924-1.278,1.8,0,.732,.349,1.254,1.045,1.566-.469,.156-.829,.399-1.081,.729s-.378,.711-.378,1.143c0,1.645,1.351,2.467,4.052,2.467,1.512,0,2.635-.255,3.366-.765,.732-.51,1.099-1.209,1.099-2.098,0-.816-.258-1.443-.774-1.881-.516-.438-1.278-.657-2.286-.657h-2.197c-.996,0-1.494-.306-1.494-.918,0-.408,.216-.702,.648-.882,.528,.252,1.104,.378,1.729,.378,1.021,0,1.83-.288,2.431-.864,.6-.576,.9-1.314,.9-2.214,0-.864-.276-1.573-.828-2.125,.216-.564,.666-.847,1.35-.847,.192,0,.408,.024,.648,.072v-1.333c-.18-.048-.378-.072-.594-.072-1.104,0-1.818,.546-2.143,1.638Zm-3.457,8.481c.312,.024,.563,.036,.756,.036h1.908c1.249,0,1.873,.432,1.873,1.296,0,.997-.918,1.495-2.755,1.495-1.824,0-2.737-.492-2.737-1.477,0-.612,.318-1.062,.955-1.35Zm3.061-4.438c-.348,.354-.805,.531-1.368,.531s-1.021-.18-1.368-.541c-.349-.36-.522-.816-.522-1.368s.171-1.002,.513-1.351c.343-.348,.802-.522,1.378-.522,.563,0,1.021,.177,1.368,.531,.348,.354,.522,.807,.522,1.359s-.175,1.005-.522,1.359Zm9.288-4.42c-1.284,0-2.287,.426-3.007,1.278-.721,.853-1.08,2.035-1.08,3.547,0,1.476,.359,2.614,1.08,3.412,.72,.798,1.729,1.198,3.024,1.198,1.873,0,3.127-.834,3.764-2.503l-1.261-.558c-.408,1.14-1.206,1.71-2.395,1.71-.804,0-1.449-.267-1.936-.801s-.735-1.239-.747-2.116h6.392v-1.08c0-1.333-.333-2.347-.999-3.043s-1.611-1.044-2.836-1.044Zm2.287,3.925h-4.844c.023-.853,.255-1.519,.693-1.999,.438-.48,1.047-.72,1.827-.72,.744,0,1.317,.216,1.72,.648s.604,1.056,.604,1.873v.198Zm14.274-3.961c-1.236,0-2.149,.612-2.737,1.836-.432-1.224-1.284-1.836-2.557-1.836-1.213,0-2.07,.606-2.575,1.819v-1.566h-1.44v9.002h1.531v-5.257c0-.816,.183-1.462,.549-1.936s.861-.711,1.485-.711c.54,0,.957,.177,1.251,.531,.295,.354,.441,.861,.441,1.521v5.852h1.53v-5.33c0-.816,.178-1.449,.531-1.899,.354-.45,.85-.675,1.485-.675,1.141,0,1.711,.708,1.711,2.125v5.78h1.53v-5.906c0-1.056-.24-1.878-.72-2.467-.48-.588-1.152-.882-2.017-.882Zm9.88,.036c-1.284,0-2.287,.426-3.007,1.278-.721,.853-1.08,2.035-1.08,3.547,0,1.476,.359,2.614,1.08,3.412,.72,.798,1.729,1.198,3.024,1.198,1.873,0,3.127-.834,3.764-2.503l-1.261-.558c-.408,1.14-1.206,1.71-2.395,1.71-.804,0-1.449-.267-1.936-.801s-.735-1.239-.747-2.116h6.392v-1.08c0-1.333-.333-2.347-.999-3.043s-1.611-1.044-2.836-1.044Zm2.287,3.925h-4.844c.023-.853,.255-1.519,.693-1.999,.438-.48,1.047-.72,1.827-.72,.744,0,1.317,.216,1.72,.648s.604,1.056,.604,1.873v.198Zm9.413-3.961c-1.416,0-2.418,.678-3.007,2.035v-1.782h-1.44v9.002h1.531v-4.699c0-.997,.216-1.78,.647-2.35,.433-.57,1.021-.855,1.765-.855,1.32,0,1.98,.798,1.98,2.395v5.51h1.531v-5.6c0-2.437-1.003-3.655-3.008-3.655Zm10.979,1.513v-1.26h-2.251v-3.007l-1.53,.648v2.359h-1.674v1.26h1.674v5.042c0,.924,.181,1.632,.54,2.125,.36,.492,.997,.738,1.909,.738,.492,0,.937-.054,1.332-.162v-1.404c-.36,.084-.672,.126-.937,.126-.456,0-.789-.117-.999-.351-.21-.234-.315-.609-.315-1.125v-4.987h2.251Z" fill="#1f2c36"/>
    <path d="M181.167,8.748c4.186,.909,8.322,2.004,12.416,3.256,8.705,2.662,17.146,5.996,25.299,10.05,.181,.09,.374,.156,.562,.232l.009-.377c-.275-.161-.544-.334-.826-.482-9.794-5.155-19.968-9.403-30.519-12.742-4.055-1.283-8.149-2.425-12.284-3.421-1.926-.464-3.857-.905-5.794-1.312-1.568-.33-3.141-.637-4.717-.922-1.519-.275-3.045-.516-4.57-.758-1.122-.179-2.247-.338-3.372-.502-.548-.08-1.097-.149-1.647-.222-.693-.092-1.386-.191-2.081-.271-.753-.087-1.508-.158-2.262-.233-1.509-.151-3.016-.321-4.526-.445-1.686-.138-3.374-.247-5.063-.343-1.427-.081-2.856-.146-4.284-.182-3.88-.099-7.76-.092-11.64-.003-.321,.007-.642,.015-.962,.039-1.629,.121-3.265,.108-4.894,.254-1.191,.107-2.386,.16-3.579,.238-.087,.006-.174,.018-.261,.027-.929,.09-1.857,.18-2.786,.27-.813,.078-1.626,.151-2.438,.235-.551,.057-1.101,.123-1.65,.194-.665,.085-1.329,.18-1.993,.268-1.04,.139-2.083,.256-3.12,.417-1.612,.251-3.219,.538-4.829,.798-1.985,.32-3.957,.714-5.925,1.122-2.995,.621-5.973,1.317-8.932,2.091-6.796,1.779-13.476,3.919-20.031,6.448-11.18,4.313-21.844,9.654-31.99,16.032-6.874,4.321-13.435,9.075-19.688,14.254-4.181,3.464-8.207,7.101-12.069,10.918-.248,.245-.48,.506-.719,.76l.017,.445c.114,.131,.222,.268,.344,.391,.719,.724,1.442,1.444,2.163,2.165,12.017,12.016,24.034,24.033,36.052,36.048,.267,.267,.549,.518,.824,.776l.376-.058c-.123-.196-.241-.396-.371-.588-3.023-4.455-4.51-9.395-4.658-14.756-.025-.901,.026-1.801,.084-2.701,.098-1.512,.296-3.007,.586-4.492,.385-2.035,.968-4.016,1.649-5.97,.432-1.239,.93-2.452,1.458-3.654,.517-1.176,1.08-2.329,1.676-3.465,.65-1.24,1.33-2.464,2.083-3.645,.596-.934,1.196-1.866,1.815-2.785,.895-1.331,1.839-2.628,2.845-3.879,.804-1,1.593-2.012,2.404-3.006,.442-.542,.902-1.072,1.378-1.584,1.43-1.539,2.834-3.104,4.372-4.537,1.259-1.173,2.518-2.348,3.819-3.473,2.251-1.946,4.584-3.79,6.994-5.538,1.7-1.233,3.428-2.426,5.192-3.566,1.813-1.171,3.653-2.297,5.522-3.376,2.805-1.62,5.672-3.12,8.587-4.53,1.68-.812,3.383-1.574,5.096-2.312,2.088-.899,4.198-1.745,6.329-2.537,2.349-.874,4.723-1.674,7.115-2.423,.583-.183,1.157-.392,1.737-.582,.107-.035,.225-.038,.338-.056,.56-.158,1.12-.319,1.681-.473,2.752-.757,5.518-1.455,8.316-2.023,1.341-.272,2.683-.545,4.028-.797,.859-.161,1.724-.288,2.587-.422,.892-.139,1.785-.275,2.68-.402,1.154-.164,2.308-.321,3.464-.473,.665-.087,1.331-.161,1.997-.235,.84-.093,1.68-.192,2.522-.266,1.016-.09,2.037-.133,3.052-.238,1.394-.145,2.794-.193,4.191-.254,2.302-.099,4.607-.137,6.911-.152,1.662-.01,3.324,.075,4.987,.09,1.693,.016,3.378,.185,5.069,.229,.116,.003,.232,.019,.349,.029,1.133,.092,2.267,.182,3.4,.278,.842,.072,1.685,.139,2.525,.233,1.216,.137,2.43,.294,3.644,.45,1.04,.133,2.083,.254,3.119,.417,1.582,.25,3.159,.533,4.739,.801,2.039,.346,4.061,.774,6.082,1.213Zm-58.965,36.906h-8.058l-3.76,7.089c-.287,.512-.573,1.142-.717,1.851h-.071c-.144-.709-.466-1.339-.717-1.851l-3.545-7.089h-8.237l7.844,13.548-8.166,14.414h8.094l3.725-7.404c.286-.591,.608-1.182,.788-1.93h.071c.18,.749,.502,1.378,.859,2.009l4.012,7.325h8.308l-8.2-13.981,7.771-13.981Zm-37.204,16.58h10.206v-5.789h-10.206v-4.884h10.815v-5.907h-18.301v27.962h18.551v-5.907h-11.065v-5.475Zm84.503-7.758c0-5.71-3.438-8.822-9.776-8.822h-12.141v27.962h7.485v-10.24h2.829l4.154,10.24h8.021l-5.157-11.46c2.865-1.339,4.584-4.096,4.584-7.68Zm-11.459,3.584h-2.973v-6.892h2.973c2.435,0,3.652,1.103,3.652,3.308,0,2.324-1.289,3.584-3.652,3.584Zm69.893-1.615l-3.653-.906c-2.614-.63-3.438-1.26-3.438-2.56,0-1.221,1.218-1.969,3.188-1.969,2.435,0,5.085,1.3,6.84,3.426l4.262-5.238c-2.543-2.757-6.268-4.214-10.529-4.214-6.481,0-10.492,3.229-10.492,8.546,0,4.647,2.471,7.601,7.377,8.783l3.223,.788c2.364,.551,3.08,1.142,3.08,2.56,0,1.458-1.396,2.324-3.652,2.324-2.758,0-5.157-1.339-6.912-3.899l-4.96,4.99c.572-1.21,.882-2.601,.882-4.163,0-4.687-2.112-7.286-6.947-8.467l-3.653-.906c-2.614-.63-3.438-1.26-3.438-2.56,0-1.221,1.218-1.969,3.188-1.969,2.435,0,5.085,1.3,6.84,3.426l4.262-5.238c-2.543-2.757-6.268-4.214-10.529-4.214-6.481,0-10.492,3.229-10.492,8.546,0,4.647,2.471,7.601,7.377,8.783l3.223,.788c2.364,.551,3.08,1.142,3.08,2.56,0,1.458-1.396,2.324-3.652,2.324-2.758,0-5.157-1.339-6.912-3.899l-4.903,4.933v-1.31h-11.065v-5.475h10.206v-5.789h-10.206v-4.884h10.815v-5.907h-18.301v27.962h18.551v-4.28c2.458,3.157,6.678,4.95,11.528,4.95,4.945,0,8.493-1.859,10.087-5.087,2.44,3.247,6.723,5.087,11.647,5.087,6.841,0,11.03-3.544,11.03-9.373,0-4.687-2.112-7.286-6.947-8.467Zm-91.376-10.791h-12.499v27.962h7.485v-9.452h4.834c5.981,0,9.599-3.583,9.599-9.452,0-5.474-3.725-9.058-9.419-9.058Zm-2.077,12.997h-2.937v-7.286h2.937c2.399,0,3.652,1.26,3.652,3.663,0,2.363-1.289,3.624-3.652,3.624Z" fill="#ed1d25"/>
  </g>
</svg>